<svg width="24" height="24" viewBox="0 0 24 24" fill="none" xmlns="http://www.w3.org/2000/svg">
<mask id="mask0_28_45767" style="mask-type:alpha" maskUnits="userSpaceOnUse" x="0" y="0" width="24" height="24">
<rect width="24" height="24" fill="#D9D9D9"/>
</mask>
<g mask="url(#mask0_28_45767)">
<path d="M7.5 21.5L6.5 20.75V16.5H4.5C4.19367 16.5 3.95042 16.4099 3.77025 16.2298C3.59008 16.0496 3.5 15.8063 3.5 15.5V7H3C2.85833 7 2.73958 6.952 2.64375 6.856C2.54792 6.76 2.5 6.64108 2.5 6.49925C2.5 6.35742 2.54792 6.23875 2.64375 6.14325C2.73958 6.04775 2.85833 6 3 6H6.5V3.5H5.5C5.35833 3.5 5.23958 3.452 5.14375 3.356C5.04792 3.26 5 3.14108 5 2.99925C5 2.85742 5.04792 2.73875 5.14375 2.64325C5.23958 2.54775 5.35833 2.5 5.5 2.5H8.5C8.64167 2.5 8.76042 2.548 8.85625 2.644C8.95208 2.74 9 2.85892 9 3.00075C9 3.14258 8.95208 3.26125 8.85625 3.35675C8.76042 3.45225 8.64167 3.5 8.5 3.5H7.5V6H11C11.1417 6 11.2604 6.048 11.3562 6.144C11.4521 6.24 11.5 6.35892 11.5 6.50075C11.5 6.64258 11.4521 6.76125 11.3562 6.85675C11.2604 6.95225 11.1417 7 11 7H10.5V15.5C10.5 15.8063 10.4099 16.0496 10.2298 16.2298C10.0496 16.4099 9.80633 16.5 9.5 16.5H7.5V21.5ZM4.5 15.5H9.5V13.1923H7.25C7.132 13.1923 7.02883 13.148 6.9405 13.0595C6.852 12.9712 6.80775 12.868 6.80775 12.75C6.80775 12.632 6.852 12.5288 6.9405 12.4405C7.02883 12.352 7.132 12.3077 7.25 12.3077H9.5V10.1923H7.25C7.132 10.1923 7.02883 10.148 6.9405 10.0595C6.852 9.97117 6.80775 9.868 6.80775 9.75C6.80775 9.632 6.852 9.52883 6.9405 9.4405C7.02883 9.352 7.132 9.30775 7.25 9.30775H9.5V7H4.5V15.5ZM14.5 21.5C14.1937 21.5 13.9504 21.4099 13.7703 21.2297C13.5901 21.0496 13.5 20.8063 13.5 20.5V13.5C13.5 13.0222 13.6026 12.6267 13.8077 12.3138C14.0129 12.0008 14.2072 11.7404 14.3905 11.5328C14.561 11.3379 14.7052 11.1664 14.823 11.0182C14.941 10.8702 15 10.6975 15 10.5V9.5H14.5C14.3583 9.5 14.2396 9.452 14.1438 9.356C14.0479 9.26 14 9.14108 14 8.99925C14 8.85742 14.0479 8.73875 14.1438 8.64325C14.2396 8.54775 14.3583 8.5 14.5 8.5H19.5C19.6417 8.5 19.7604 8.548 19.8563 8.644C19.9521 8.74 20 8.85892 20 9.00075C20 9.14258 19.9521 9.26125 19.8563 9.35675C19.7604 9.45225 19.6417 9.5 19.5 9.5H19V10.5C19 10.6975 19.0609 10.8732 19.1828 11.027C19.3046 11.1808 19.4527 11.3552 19.627 11.55C19.8103 11.7577 20.0017 12.0167 20.201 12.327C20.4003 12.6372 20.5 13.0258 20.5 13.493V20.5C20.5 20.8063 20.4099 21.0496 20.2297 21.2297C20.0496 21.4099 19.8063 21.5 19.5 21.5H14.5ZM14.5 14.3077H19.5V13.5C19.5 13.173 19.425 12.8987 19.275 12.677C19.125 12.4552 18.9455 12.2295 18.7365 12C18.5623 11.813 18.396 11.6044 18.2375 11.3743C18.0792 11.1439 18 10.8525 18 10.5V9.5H16V10.5C16 10.845 15.9208 11.1326 15.7625 11.3628C15.6042 11.5927 15.4398 11.8033 15.2693 11.9943C15.0603 12.2238 14.8798 12.4503 14.728 12.674C14.576 12.8977 14.5 13.173 14.5 13.5V14.3077ZM14.5 17.3077H19.5V15.1923H14.5V17.3077ZM14.5 20.5H19.5V18.1923H14.5V20.5Z" fill="#1C1B1F"/>
</g>
</svg>
